<svg xmlns="http://www.w3.org/2000/svg" viewBox="0 0 64 64">
<path fill="#dd574c" d="M2.2,6.5C0.9,6,0,4.7,0,3.2c0.1-1.5,1.1-2.7,2.5-3.1c1.3-0.2,2.7,0,3.9,0.6c5,1.9,9.4,4.8,13.9,7.7c4.7,2.9,9.2,6.1,13.5,9.6c7.9,6.9,14,15.7,17.5,25.7c0.4-2.1-1-4.3-0.3-6.4c0.5-1.5,2-2.6,3.3-3.5c0.3-0.2,0.7-0.4,1-0.2c0.2,0.1,0.2,0.3,0.3,0.5c1.9,5.9,2.1,12.2,2.2,18.5c0.1,3.9-0.2,8.2-3.1,10.7c-0.8,0.8-2,1-3.1,0.8c-0.5-0.2-0.9-0.5-1.2-0.9c-7-5.9-13.9-11.8-20.9-17.7c-0.6-0.3-1-0.9-1.2-1.5c-0.3-1.2,0.7-2.3,1.6-3c0.9-0.7,1.9-1.6,3.1-1.6c1.1,0.1,2.1,0.6,2.8,1.3c3.6,2.8,7.1,5.4,10.7,8.2c-2.5-6.6-5.6-13-9.9-18.5C31.6,23.8,24.6,19,17.6,14.5C12.6,11.5,7.6,8.5,2.2,6.5 M38.3,23.6c-0.3-0.6-0.8-1.2-1.3-1.7c-0.2-0.2-0.4-0.3-0.7-0.3C36.7,22.4,37.4,23.1,38.3,23.6 M38.7,24.2c0.2,0.3,0.5,0.6,0.9,0.7c-0.1-0.5-0.5-1-1-1.2C38.4,23.9,38.5,24.1,38.7,24.2 M41.2,27c-0.2-0.5-0.6-0.9-1.1-1.2c0.2,0.6,0.6,1,1.1,1.4L41.2,27z"/>
</svg>