<svg xmlns="http://www.w3.org/2000/svg" viewBox="0 0 18 18">
<path fill="#4285F4" d="M17.6,9.2c0-0.6-0.1-1.3-0.2-1.8H9v3.5h4.8C13.6,12,13,12.9,12,13.6v2.3 H15C16.7,14.3,17.6,11.9,17.6,9.2L17.6,9.2z"/>
<path fill="#34A853" d="M9,18c2.4,0,4.5-0.8,6-2.2L12,13.6c-0.8,0.5-1.8,0.9-3,0.9c-2.3,0-4.3-1.6-5-3.7H1 V13C2.4,16,5.5,18,9,18L9,18z"/>
<path fill="#FBBC05" d="M4,10.7C3.8,10.2,3.7,9.6,3.7,9S3.8,7.8,4,7.3V5H1C0.3,6.2,0,7.5,0,9s0.3,2.8,1,4 L4,10.7L4,10.7z"/>
<path fill="#EA4335" d="M9,3.6c1.3,0,2.5,0.5,3.4,1.3L15,2.3C13.5,0.9,11.4,0,9,0C5.5,0,2.4,2,1,5l3,2.3 C4.7,5.2,6.7,3.6,9,3.6L9,3.6z"/>
</svg>
