<svg xmlns="http://www.w3.org/2000/svg" viewBox="0 0 16 16">
<path id="icon-flame" d="M13.5,6.8C13.3,7.4,13,8,12.5,8.5C12,5.1,9.8,5.2,9.8,2c0-0.7,0.1-1.4,0.2-2C6.9,0.7,4.6,4,4.6,8c0,0.4,0,0.7,0.1,1.1C3.8,7.9,3.6,6.3,4.1,4.9C1.4,7,1,10.9,3.1,13.6c1,1.3,2.5,2.1,4.2,2.4c-0.7-0.6-1.1-1.6-1.1-2.5c0-1.6,1.2-3.4,1.9-5.6c0.6,2.2,2.6,4,2.6,5.6c0,0.9-0.3,1.7-0.9,2.3c3.3-1,5.2-4.4,4.3-7.7C13.9,7.6,13.7,7.2,13.5,6.8">
<!-- <animate dur="400ms" repeatCount="indefinite" attributeName="d" values="
M13.5,6.8C13.3,7.4,13,8,12.5,8.5C12,5.1,9.8,5.2,9.8,2c0-0.7,0.1-1.4,0.2-2C6.9,0.7,4.6,4,4.6,8c0,0.4,0,0.7,0.1,1.1C3.8,7.9,3.6,6.3,4.1,4.9C1.4,7,1,10.9,3.1,13.6c1,1.3,2.5,2.1,4.2,2.4c-0.7-0.6-1.1-1.6-1.1-2.5c0-1.6,1.2-3.4,1.9-5.6c0.6,2.2,2.6,4,2.6,5.6c0,0.9-0.3,1.7-0.9,2.3c3.3-1,5.2-4.4,4.3-7.7C13.9,7.6,13.7,7.2,13.5,6.8;
M12.9,4.8c0.6,1.9-0.4,3.7-0.8,4.1c-0.8-4.6-2.7-4-3.2-6.2C8.9,2,8.7,1.8,8.9,1.2c-2.2,3.2-3,3-4,6.7c0,0.4,0,1.2,0,1.5C3.6,9.2,2.3,7.3,2.7,5.5c-1.4,3.8-1.6,5.9,0.3,8.1c1.1,1.3,2.2,1.9,3.8,2.3c-0.7-0.6-1.1-2.2-1.1-3.2c0-1.6,1.7-4,2.3-6.1c0.6,2.2,3.1,4.8,3.1,6.4c0,0.9-0.9,2.1-1.5,2.7c3.3-1,5.7-4.3,4.8-7.6c-0.1-0.4-0.5-1.4-0.7-1.8;
M13.5,6.8C13.3,7.4,13,8,12.5,8.5C12,5.1,9.8,5.2,9.8,2c0-0.7,0.1-1.4,0.2-2C6.9,0.7,4.6,4,4.6,8c0,0.4,0,0.7,0.1,1.1C3.8,7.9,3.6,6.3,4.1,4.9C1.4,7,1,10.9,3.1,13.6c1,1.3,2.5,2.1,4.2,2.4c-0.7-0.6-1.1-1.6-1.1-2.5c0-1.6,1.2-3.4,1.9-5.6c0.6,2.2,2.6,4,2.6,5.6c0,0.9-0.3,1.7-0.9,2.3c3.3-1,5.2-4.4,4.3-7.7C13.9,7.6,13.7,7.2,13.5,6.8"/>
 --></path>
<!--<style>
#icon-flame {
	animation: pulse 300ms infinite alternate, flash 700ms infinite;
	transform-origin: 50% 100%;
}
@keyframes pulse {
	from {
		transform: scale(.95);
	}
}
@keyframes flash {
	from {
		opacity: .5;
	}
}
</style>-->
</svg>