<svg xmlns="http://www.w3.org/2000/svg" viewBox="0 0 1131 161" fill="#ffffff">
<path d="M548.3,160.7c-44.3,0-80.3-36-80.3-80.3S504,0,548.3,0c44.3,0,80.3,36,80.3,80.3S592.6,160.7,548.3,160.7z M548.3,8.1
c-39.8,0-72.2,32.4-72.2,72.2s32.4,72.2,72.2,72.2c39.8,0,72.2-32.4,72.2-72.2S588.1,8.1,548.3,8.1z"/>
<path d="M592,53.6c-2.7-6.1-7.7-10.6-14.2-12.5c-7-2.1-15.1-1-21,2.8c-4,2.5-6.6,6.3-8.5,10.2v0c-1.8-3.9-4.5-7.6-8.5-10.2
c-6-3.8-14-4.9-21-2.8c-6.4,1.9-11.5,6.4-14.2,12.5c-1.4,3.5-1.9,9.9-1.9,14v50.3h8.1V79.3l37.4,37v0.1l0,0l0,0v0l0,0v0l37.4-37
v38.6h8.1V67.6C593.9,63.5,593.4,57.2,592,53.6z M544.2,100.9c0,0-29.3-29-30.2-29.9c-3.7-3.7-3.6-10.1-2-14.2c2-5,6.1-7,9-7.9
c4.7-1.4,10.3-0.7,14.3,1.9c6.1,3.9,7.9,13.3,8.8,17.9V100.9z M582.5,71.1c-0.9,0.9-30.2,29.9-30.2,29.9V68.7
c0.9-4.7,2.7-14,8.8-17.9c4-2.6,9.6-3.3,14.3-1.9c2.9,0.9,7.1,2.9,9,7.9C586.1,61,586.3,67.3,582.5,71.1z"/>
<path d="M0,49.4h13.6l15.1,24.3l15.1-24.3h13.6v57.4H44.9V69.4L28.7,93.9h-0.3l-16-24.3v37.2H0V49.4z"/>
<path d="M92.3,49H104l24.6,57.8h-13.2L110.1,94H85.9l-5.2,12.9H67.7L92.3,49z M105.6,82.8L98,64.2l-7.6,18.6H105.6z"/>
<path d="M145.2,61.1h-17.5V49.4h47.6v11.6h-17.5v45.8h-12.6V61.1z"/>
<path d="M199,49h11.6l24.6,57.8h-13.2L216.8,94h-24.3l-5.2,12.9h-12.9L199,49z M212.3,82.8l-7.6-18.6l-7.6,18.6H212.3z"/>
<path d="M245.6,49.4H268c18,0,30.5,12.4,30.5,28.5v0.2c0,16.2-12.5,28.7-30.5,28.7h-22.4V49.4z M268,95.5c10.3,0,17.3-7,17.3-17.1
v-0.2c0-10.2-7-17.3-17.3-17.3h-9.8v34.6H268z"/>
<path d="M308.7,78.3v-0.2c0-16.3,12.9-29.7,30.6-29.7c17.7,0,30.4,13.2,30.4,29.5v0.2c0,16.3-12.9,29.7-30.6,29.7
C321.4,107.8,308.7,94.6,308.7,78.3z M356.5,78.3v-0.2c0-9.8-7.2-18-17.4-18c-10.2,0-17.2,8-17.2,17.9v0.2c0,9.8,7.2,18,17.4,18
S356.5,88.2,356.5,78.3z"/>
<path d="M382.9,49.4h26.2c7.3,0,13,2.1,16.7,5.8c3.2,3.2,4.9,7.7,4.9,13.1v0.2c0,9.3-5,15.1-12.3,17.8l14,20.5h-14.8l-12.3-18.4
h-0.2h-9.8v18.4h-12.6V49.4z M408.4,77.3c6.2,0,9.7-3.3,9.7-8.1V69c0-5.4-3.8-8.2-9.9-8.2h-12.6v16.5H408.4z"/>
<path d="M656.3,78.3v-0.2c0-16.3,12.9-29.7,30.6-29.7c17.7,0,30.4,13.2,30.4,29.5v0.2c0,16.3-12.9,29.7-30.6,29.7
C669,107.8,656.3,94.6,656.3,78.3z M704.1,78.3v-0.2c0-9.8-7.2-18-17.4-18c-10.2,0-17.2,8-17.2,17.9v0.2c0,9.8,7.2,18,17.4,18
C697.1,96.2,704.1,88.2,704.1,78.3z"/>
<path d="M728.7,49.4h26.2c7.3,0,13,2.1,16.7,5.8c3.2,3.2,4.9,7.7,4.9,13.1v0.2c0,9.3-5,15.1-12.3,17.8l14,20.5h-14.8l-12.3-18.4
h-0.2h-9.8v18.4h-12.6V49.4z M754.1,77.3c6.2,0,9.7-3.3,9.7-8.1V69c0-5.4-3.8-8.2-9.9-8.2h-12.6v16.5H754.1z"/>
<path d="M788.8,49.4h12.6v57.4h-12.6V49.4z"/>
<path d="M813.2,78.3v-0.2c0-16.3,12.7-29.7,30.1-29.7c10.3,0,16.6,2.8,22.6,7.9l-8,9.6c-4.4-3.7-8.4-5.8-15-5.8
c-9.2,0-16.5,8.1-16.5,17.9v0.2c0,10.5,7.2,18.2,17.4,18.2c4.6,0,8.7-1.1,11.9-3.4v-8.2h-12.7V73.8h24.9v24.9
c-5.9,5-14,9.1-24.5,9.1C825.5,107.8,813.2,95.3,813.2,78.3z"/>
<path d="M881.3,49.4h12.6v57.4h-12.6V49.4z"/>
<path d="M908.4,49.4h11.6L947,84.8V49.4h12.5v57.4h-10.7l-27.8-36.5v36.5h-12.5V49.4z"/>
<path d="M992.5,49h11.6l24.6,57.8h-13.2l-5.2-12.9h-24.3l-5.2,12.9h-12.9L992.5,49z M1005.8,82.8l-7.6-18.6l-7.6,18.6H1005.8z"/>
<path d="M1037.3,49.4h12.6v45.9h28.6v11.5h-41.3V49.4z"/>
<path d="M1085.5,98.5l7.5-8.9c5.2,4.3,10.6,7,17.1,7c5.2,0,8.3-2,8.3-5.4v-0.2c0-3.2-2-4.8-11.6-7.3c-11.6-3-19-6.2-19-17.6v-0.2
c0-10.4,8.4-17.3,20.1-17.3c8.4,0,15.5,2.6,21.3,7.3l-6.6,9.5c-5.1-3.5-10.1-5.7-14.9-5.7c-4.8,0-7.4,2.2-7.4,5v0.2
c0,3.8,2.5,5,12.4,7.5c11.6,3,18.2,7.2,18.2,17.2v0.2c0,11.4-8.7,17.8-21.1,17.8C1101.1,107.7,1092.4,104.6,1085.5,98.5z"/>
</svg>