<svg xmlns="http://www.w3.org/2000/svg" viewBox="0 0 100 100">
<path d="M50,100C22.4,100,0,77.6,0,50S22.4,0,50,0s50,22.4,50,50S77.6,100,50,100z M50,5.1C25.2,5.1,5.1,25.3,5.1,50S25.3,94.9,50,94.9c24.8,0,44.9-20.2,44.9-44.9S74.8,5.1,50,5.1z"/>
<path d="M77.2,33.4c-1.7-3.8-4.8-6.6-8.8-7.8C64,24.3,59,25,55.3,27.3c-2.5,1.6-4.1,3.9-5.3,6.3l0,0c-1.1-2.4-2.8-4.7-5.3-6.3c-3.7-2.4-8.7-3.1-13.1-1.7c-4,1.2-7.1,4-8.8,7.8c-0.9,2.2-1.2,6.1-1.2,8.7v31.3h5v-24l23.3,23v0.1l0,0l0,0l0,0l0,0l0,0l23.3-23v24h5V42.1C78.4,39.5,78.1,35.6,77.2,33.4z M47.5,62.8c0,0-18.2-18.1-18.8-18.6c-2.3-2.3-2.2-6.3-1.2-8.9c1.2-3.1,3.8-4.4,5.6-4.9c2.9-0.9,6.4-0.4,8.9,1.1c3.8,2.4,4.9,8.3,5.5,11.2V62.8L47.5,62.8z M71.3,44.2c-0.5,0.5-18.8,18.6-18.8,18.6V42.7C53,39.8,54.2,34,58,31.5c2.5-1.6,6-2,8.9-1.1c1.8,0.6,4.4,1.8,5.6,4.9C73.5,37.9,73.6,41.9,71.3,44.2z"/>
</svg>