<svg xmlns="http://www.w3.org/2000/svg" width="33" height="33" viewBox="0 0 33 33">
    <g id="prefix__Group_3206" data-name="Group 3206" transform="translate(-120.807 -3033.224)">
        <circle id="prefix__Ellipse_142" cx="16.5" cy="16.5" r="16.5" fill="#ea594a" data-name="Ellipse 142" transform="translate(120.807 3033.224)"/>
        <path id="prefix__Path_582" fill="#fff" d="M191.982 16.96a4.475 4.475 0 0 0-2.857-2.355 5.492 5.492 0 0 0-4.257.523 4.389 4.389 0 0 0-1.681 1.936 5.133 5.133 0 0 0-1.681-1.936 5.461 5.461 0 0 0-4.257-.523 4.474 4.474 0 0 0-2.857 2.355 8.027 8.027 0 0 0-.392 2.616v9.47h1.625v-7.272l7.563 6.959 7.563-6.959v7.273h1.624v-9.47a6.769 6.769 0 0 0-.393-2.617zm-9.582 8.895s-5.882-5.442-6.106-5.6a2.47 2.47 0 0 1-.392-2.668 2.578 2.578 0 0 1 1.849-1.465 3.607 3.607 0 0 1 2.857.366c1.232.733 1.568 2.511 1.792 3.4v5.965zm7.675-5.651c-.168.157-6.106 5.6-6.106 5.6v-6.018c.168-.889.56-2.616 1.793-3.4a3.836 3.836 0 0 1 2.857-.366 2.579 2.579 0 0 1 1.849 1.465 2.439 2.439 0 0 1-.39 2.715z" data-name="Path 582" transform="translate(-45.612 3027.685)"/>
    </g>
</svg>
