<svg xmlns="http://www.w3.org/2000/svg" viewBox="0 0 472 66" fill="#fff">
<path d="M438.2,37.5c1-5.7,4.6-9.6,9.9-9.6c5.5,0,9.2,3.8,9.2,9.6H438.2z M471.8,45.7c1.1-17.3-7.2-28.3-23.9-28.3c-14.7,0-24.7,9.7-24.7,24.4c0,14.4,9.7,24.1,25.2,24.1c8.7,0,15.8-3.1,20.7-8.4l-8-7.8c-3.2,3.2-7.2,4.8-11.4,4.8c-5.6,0-9.7-3.2-11.2-8.8L471.8,45.7"/>
<path d="M389.8,52.4l5.1-5.4l10.3,18.3h18l-18-29.2l17.4-18.2h-17.2l-15.7,16.6V0l-15.2,0v65.3h15.2L389.8,52.4"/>
<path d="M329.5,41.7c0-7.3,4.3-12.3,10.6-12.3c6.2,0,10.6,5,10.6,12.3c0,7.4-4.3,12.3-10.6,12.3C333.8,54,329.5,49.1,329.5,41.7L329.5,41.7z M366,41.5c0-14.6-10.4-24.2-25.9-24.2c-15.6,0-26,9.6-26,24.2c0,14.6,10.4,24.3,26,24.3C355.6,65.8,366,56.1,366,41.5"/>
<path d="M310.7,62.7l-3-10.6c-2.3,1-4.3,1.6-5.9,1.6c-2.8,0.1-4.4-1.5-4.4-5.2V30h12.4V20h-12.4V6.9l-15.1,0v13.2h-6.6V30h6.6V51c0,9.9,6.6,15,15.8,15C302.6,66,307.3,64.8,310.7,62.7"/>
<path d="M271.5,22.5c-5.8-3.4-12.7-5.4-19.5-5.4c-11,0-19.3,5.3-19.3,15c-0.1,16.6,24.5,13,24.5,20c0,2.2-2.2,3.3-5.2,3.3c-5.3,0-11.4-2.1-16.8-5.9l-4.8,9.7c5.7,4.4,13.4,6.7,21.3,6.7c11.4,0,20-5.4,20-15.1c0.1-16.5-24.9-13.4-24.9-19.9c0-2.2,1.9-3.3,4.7-3.3c4,0,9.2,1.7,15,4.8L271.5,22.5"/>
<path d="M213.2,0l6.9,0v65.3h-6.9V0z"/>
<path d="M163.1,39.2c1.1-8.8,7.4-14.5,16.2-14.5c9.1,0,15,5.6,15.5,14.5L163.1,39.2z M201,44.8c0.7-15.8-6.7-26.1-21.6-26c-13.5,0-23,9.6-23,23.4c0,13.8,9.4,23.4,23.1,23.4c7.7,0,14.3-2.8,18.7-7.7l-3.8-4c-3.6,3.8-8.6,5.8-14.3,5.8c-9,0-15.6-5.7-16.8-14.8H201"/>
<path d="M129.1,65.3h7.1l18.2-46.4h-7l-14.7,39.2L118,18.9h-7.3L129.1,65.3"/>
<path d="M98.6,49.3c-1.8,6.4-7.7,10.4-15.6,10.4c-6.5,0-10.6-3.3-10.6-8.4c0-5.1,4-7.5,11.8-7.5h14.4L98.6,49.3L98.6,49.3zM98.6,58.2v7.1h6.7l-0.1-30.6c-0.1-9.9-6.4-16-17.9-16c-7.9,0-12.9,2.3-18.9,6.2l2.9,5c4.8-3.3,9.6-5.3,14.7-5.3c8.2,0,12.4,4,12.4,10.8v2.7H83.2c-10.9,0.1-17.3,5.2-17.3,13.3c0,8,6.2,14.2,15.8,14.2C89.1,65.6,94.9,63.2,98.6,58.2"/>
<path d="M46.2,29.2V18.9l-6.9,0v46.4l6.9,0l0-24.6c0.8-9.2,6.9-15.2,16.6-15v-7C55,18.7,49.3,22.4,46.2,29.2"/>
<path d="M29,62.1L27,56.6c-2.6,1.6-5,2.4-7.4,2.4c-4,0-6.2-2.1-6.2-7.7l0-25.3h14.7v-5.6l-14.7,0.1l0-12.2l-6.8,0l0,12.2H0L0,26h6.7l0,26.5c0,9.2,5,13.2,11.8,13.2C22.2,65.6,25.7,64.3,29,62.1"/>
</svg>