<svg xmlns="http://www.w3.org/2000/svg" viewBox="0 0 100 100">
<path d="M12,44.4c0.7,15.3,7.3,26.5,20.3,33.9c1,0.6,1.7,1.3,2,2.4c0.3,1.4-0.1,2.6-1.3,3.5c-1.2,0.9-2.4,1-3.7,0.3c-2.6-1.3-5-2.9-7.3-4.8C14.5,73.7,9.4,65.9,6.8,56.6C5.5,52,5,47.2,5.3,42.5C6.2,29.2,11.7,18.4,21.9,10c5.9-4.9,12.6-8,20.1-9.3c15.9-2.6,29.5,2,40.7,13.6c6.1,6.3,9.7,14,11.3,22.6c0.8,4.3,0.9,8.6,0.4,12.9c-1.1,9.4-4.8,17.6-11,24.6c-3.6,4.1-8,7.5-12.8,10.1c-1.7,0.9-3.8,0.3-4.7-1.4c-0.9-1.7-0.3-3.8,1.5-4.7c6.1-3.2,10.9-7.7,14.6-13.5c3.1-4.9,5-10.2,5.6-15.9c1.1-11.5-2.1-21.5-9.8-30C71.9,12.6,64.7,8.7,56.1,7.4C44.6,5.6,34.3,8.4,25.4,16c-6.8,5.7-11,13.1-12.6,21.8C12.4,40.1,12.3,42.5,12,44.4z"/>
<path d="M50,20.5c-11.6,0.1-21.7,8.4-23.7,19.8c-1.5,8.4,0.8,15.6,6.8,21.6c2,2.1,1.2,5.2-1.3,6c-1.3,0.4-2.5,0-3.5-0.9c-2.9-2.8-5.2-6.2-6.8-10c-1.9-4.4-2.8-9.2-2.5-14.1c0.4-7.3,3.1-13.6,8-19c4.5-5,10.1-8.2,16.7-9.5c9.9-1.9,18.8,0.4,26.5,6.9c5.4,4.6,8.8,10.4,10.1,17.3c1.8,9.3-0.2,17.7-6,25.2C73.5,65,72.6,66,71.6,67c-1,1.1-2.3,1.4-3.6,0.9c-1.4-0.5-2.1-1.5-2.3-2.9c-0.1-1.2,0.3-2.1,1.1-2.9c2.6-2.5,4.6-5.6,5.8-9c5.1-13.8-3.4-29-17.7-31.9C53.3,20.9,51.7,20.7,50,20.5z"/>
<path d="M60.4,72.5c-0.2,1.2-0.4,2.6-0.6,4c-0.7,4.3-1.5,8.6-2.2,13c-0.3,1.7-0.6,3.4-0.9,5c-0.7,3.3-3.5,5.6-6.9,5.6c-3.2-0.1-6-2.5-6.5-5.7c-1.1-6.5-2.2-13-3.3-19.5c-1-5.3,1.5-9.2,4.8-11.2c6.2-3.8,14.4,0,15.5,7.2C60.2,71.2,60.3,71.7,60.4,72.5z"/>
<path d="M50,55.2c-5.7,0-10.3-4.6-10.3-10.3c0-5.7,4.6-10.4,10.3-10.4c5.7,0,10.4,4.7,10.4,10.4c0,2.7-1.1,5.4-3,7.3C55.4,54.1,52.7,55.2,50,55.2L50,55.2z"/>
</svg>