<svg xmlns="http://www.w3.org/2000/svg" viewBox="0 0 100 100">
<path d="M50,72.4l50-31.2v8.5L50,81L0,49.6v-8.5L50,72.4z M50,33.2c-11.3,0-21.2,5.7-26.9,14.5c0.5-0.5,0.7-0.7,1.2-1.1c14-11.7,34.3-9.1,45.3,5.7l7.3-4.7C71.2,39.1,61.2,33.2,50,33.2L50,33.2z M50,47.7c-2.9,0-5.7,0.7-8.3,2c-2.6,1.3-4.8,3.2-6.5,5.6c2.6-1.9,5.7-2.9,8.9-2.9c5.4,0,10.2,2.8,13.5,7.5l7-4.4C61.6,50.7,56.2,47.7,50,47.7L50,47.7z M16.2,35c20.6-16.3,49.7-11.8,65.2,9.8l0.1,0.1l7.6-4.7c-4.2-6.5-10.1-11.9-16.9-15.6S57.8,19,50,19c-16.2,0-30.7,8.3-39.1,21.2C12.4,38.5,14.3,36.5,16.2,35z"/>
</svg>