<svg xmlns="http://www.w3.org/2000/svg" viewBox="0 0 100 100">
<path d="M6.2,40.3c-1.7,0-3.2,0.7-4.4,1.8C0.7,43.3,0,44.9,0,46.6v6.8c0,8.3,12.5,8.3,12.5,0v-6.8c0-1.7-0.7-3.2-1.8-4.4C9.5,41,7.9,40.3,6.2,40.3z M93.8,40.3c-1.7,0-3.2,0.7-4.4,1.8c-1.2,1.2-1.8,2.8-1.8,4.4v6.8c0,8.3,12.5,8.3,12.5,0v-6.8c0-1.7-0.7-3.2-1.8-4.4C97,41,95.4,40.3,93.8,40.3z M27.8,60.8c-1.7,0-3.2,0.7-4.4,1.8c-1.2,1.2-1.8,2.8-1.8,4.4v6.8c0,8.3,12.5,8.3,12.5,0v-6.7C34.1,63.6,31.3,60.8,27.8,60.8L27.8,60.8z M27.8,19.9c-1.7,0-3.2,0.7-4.4,1.8c-1.2,1.2-1.8,2.8-1.8,4.4v22.3c0,8.3,12.5,8.3,12.5,0V26.1C34.1,22.6,31.3,19.8,27.8,19.9L27.8,19.9z M72.2,19.9c-3.5,0-6.2,2.8-6.2,6.2V33c0,8.3,12.5,8.3,12.5,0v-6.8c0-1.7-0.7-3.2-1.8-4.4C75.4,20.5,73.8,19.9,72.2,19.9z M50,0c-1.7,0-3.2,0.7-4.4,1.8c-1.2,1.2-1.8,2.8-1.8,4.4V13c0,8.3,12.5,8.3,12.5,0V6.2c0-1.7-0.7-3.2-1.8-4.4C53.2,0.7,51.7,0,50,0z M50,80.6c-1.7,0-3.2,0.7-4.4,1.8c-1.2,1.2-1.8,2.8-1.8,4.4v6.8c0,8.3,12.5,8.4,12.5,0v-6.8C56.2,83.5,53.5,80.7,50,80.6L50,80.6z M72.2,45.4c-3.5,0-6.2,2.8-6.2,6.2v22.2c0,8.3,12.5,8.3,12.5,0V51.6c0-1.7-0.7-3.2-1.8-4.4C75.4,46.1,73.8,45.4,72.2,45.4z M50,25.5c-3.5,0-6.2,2.8-6.2,6.2v36.4c0,8.3,12.5,8.3,12.5,0V31.8C56.2,28.4,53.5,25.6,50,25.5L50,25.5z"/>
</svg>