<svg xmlns="http://www.w3.org/2000/svg" viewBox="0 0 100 100">
<path d="M50,100C22.5,100.1,0.1,77.8,0,50.3V50C0,22.3,22.3,0,50,0s50,22.3,50,50S77.7,100,50,100z M50,80.2l3.7-3.7L50,62.1l-3.7,14.4L50,80.2z M45.2,80l-1.9,7.1l4.4-4.4L45.2,80z M54.8,80l-2.5,2.5l4.4,4.4L54.8,80z M58.3,92.9L50,84.6l-8.3,8.3c2.7,0.4,5.4,0.8,8.3,0.8S55.6,93.5,58.3,92.9z M50,6.2C25.8,6.2,6.2,25.8,6.2,50c0,9.1,2.8,17.9,8.1,25.3c5.3,7.4,12.7,13,21.3,15.9L45,56.5c-1-0.8-1.9-1.8-2.5-2.9c-0.6-1.2-0.9-2.4-0.9-3.7c0-4.6,3.7-8.3,8.3-8.3s8.3,3.7,8.3,8.3c0,2.7-1.3,5-3.3,6.7l9.4,34.8c8.6-2.9,16-8.5,21.3-15.9c5.3-7.4,8.1-16.3,8.1-25.3C93.8,25.8,74.2,6.2,50,6.2z M78.6,71.7c-0.5,0.6-1.2,1.1-2.1,1.2c-0.8,0.1-1.6-0.1-2.3-0.5c-0.6-0.4-1.1-1.1-1.2-1.8c-0.2-0.7,0-1.5,0.4-2.1c0.1-0.1,0.1-0.2,0.2-0.3c0,0,5.6-7.5,5.6-18.1s-5.6-18.1-5.6-18.1c-0.2-0.3-0.4-0.6-0.5-1c-0.1-0.4-0.1-0.7-0.1-1.1c0-0.4,0.1-0.7,0.3-1.1c0.2-0.3,0.4-0.6,0.7-0.9c0.1-0.1,0.2-0.1,0.2-0.2c0.7-0.5,1.5-0.7,2.3-0.6c0.8,0.1,1.6,0.5,2.1,1.2c0.4,0.4,6.9,9,6.9,21.7C85.4,62.7,79,71.3,78.6,71.7L78.6,71.7z M63.3,63.5c-1.3-1.3-1-3.5,0.2-4.8c0,0,3.1-3.3,3.1-8.8c0-5.4-3.1-8.5-3.1-8.8c-1.3-1.2-1.3-3.3-0.2-4.8c0.3-0.3,0.6-0.6,0.9-0.8c0.4-0.2,0.8-0.3,1.2-0.3c0.4,0,0.8,0.1,1.2,0.2c0.4,0.2,0.7,0.4,1,0.7c0.2,0.2,5.2,5.4,5.2,13.8s-5,13.5-5.2,13.8C66.5,65,64.6,64.8,63.3,63.5L63.3,63.5z M36.7,63.5c-1.3,1.3-3.1,1.5-4.4,0.2c-0.2-0.4-5.2-5.4-5.2-13.8s5-13.3,5.2-13.8c1.3-1.3,3.3-1.3,4.4,0.2c1.3,1.3,1,3.5-0.2,4.8c0,0.2-3.1,3.3-3.1,8.8c0,5.4,3.1,8.8,3.1,8.8C37.7,60,37.9,62.1,36.7,63.5L36.7,63.5z M25.8,72.3c-0.7,0.5-1.5,0.7-2.3,0.5c-0.8-0.1-1.6-0.5-2.1-1.2c-0.4-0.4-6.9-8.9-6.9-21.7c0-12.7,6.5-21.3,6.9-21.7c0.5-0.6,1.2-1.1,2.1-1.2c0.8-0.1,1.6,0.1,2.3,0.5c0.6,0.4,1.1,1.1,1.2,1.8c0.2,0.7,0,1.5-0.4,2.1c-0.1,0.1-0.1,0.2-0.2,0.2c0,0-5.6,7.5-5.6,18.1s5.6,18.1,5.6,18.1C27.5,69.4,27.1,71.3,25.8,72.3z"/>
</svg>